<svg width="276" height="404" viewBox="0 0 276 404" fill="none" xmlns="http://www.w3.org/2000/svg">
<rect width="248" height="380" rx="20" fill="#03AED2" fill-opacity="0.3"/>
<path d="M265.333 340C265.333 354.145 259.714 367.71 249.712 377.712C239.71 387.714 226.145 393.333 212 393.333C197.855 393.333 184.289 387.714 174.287 377.712C164.286 367.71 158.667 354.145 158.667 340C158.667 325.855 164.286 312.29 174.287 302.288C184.289 292.286 197.855 286.667 212 286.667C226.145 286.667 239.71 292.286 249.712 302.288C259.714 312.29 265.333 325.855 265.333 340ZM206.667 345.333V361.333C206.667 362.748 207.228 364.104 208.229 365.105C209.229 366.105 210.585 366.667 212 366.667C213.414 366.667 214.771 366.105 215.771 365.105C216.771 364.104 217.333 362.748 217.333 361.333V345.333C217.333 343.919 216.771 342.562 215.771 341.562C214.771 340.562 213.414 340 212 340C210.585 340 209.229 340.562 208.229 341.562C207.228 342.562 206.667 343.919 206.667 345.333ZM212 316C209.878 316 207.843 316.843 206.343 318.343C204.843 319.843 204 321.878 204 324C204 326.122 204.843 328.157 206.343 329.657C207.843 331.157 209.878 332 212 332C214.122 332 216.156 331.157 217.657 329.657C219.157 328.157 220 326.122 220 324C220 321.878 219.157 319.843 217.657 318.343C216.156 316.843 214.122 316 212 316Z" fill="#F8F8F8" fill-opacity="0.2"/>
</svg>
