<svg width="251" height="399" viewBox="0 0 251 399" fill="none" xmlns="http://www.w3.org/2000/svg">
<rect width="248" height="380" rx="20" fill="#FDDE55"/>
<rect width="248" height="380" rx="20" fill="white" fill-opacity="0.5"/>
<path d="M175.062 382.125C175.062 382.125 166.625 382.125 166.625 373.688C166.625 365.25 175.062 339.938 208.812 339.938C242.562 339.938 251 365.25 251 373.688C251 382.125 242.562 382.125 242.562 382.125H175.062ZM208.812 331.5C215.526 331.5 221.964 328.833 226.711 324.086C231.458 319.339 234.125 312.901 234.125 306.188C234.125 299.474 231.458 293.036 226.711 288.289C221.964 283.542 215.526 280.875 208.812 280.875C202.099 280.875 195.661 283.542 190.914 288.289C186.167 293.036 183.5 299.474 183.5 306.188C183.5 312.901 186.167 319.339 190.914 324.086C195.661 328.833 202.099 331.5 208.812 331.5ZM160.01 382.125C158.76 379.491 158.136 376.603 158.188 373.688C158.188 362.255 163.925 350.484 174.522 342.3C169.234 340.667 163.722 339.87 158.188 339.938C124.438 339.938 116 365.25 116 373.688C116 382.125 124.438 382.125 124.438 382.125H160.01ZM153.969 331.5C159.563 331.5 164.928 329.278 168.884 325.322C172.84 321.366 175.062 316.001 175.062 310.406C175.062 304.812 172.84 299.447 168.884 295.491C164.928 291.535 159.563 289.312 153.969 289.312C148.374 289.312 143.009 291.535 139.053 295.491C135.097 299.447 132.875 304.812 132.875 310.406C132.875 316.001 135.097 321.366 139.053 325.322C143.009 329.278 148.374 331.5 153.969 331.5Z" fill="#F8F8F8" fill-opacity="0.4"/>
</svg>
