<svg width="7" height="12" viewBox="0 0 7 12" fill="none" xmlns="http://www.w3.org/2000/svg">
<rect width="7" height="12" fill="#E6E6E6"/>
<g id="&#235;&#169;&#152;&#237;&#134;&#160;">
<path d="M-454 -3372C-454 -3373.1 -453.105 -3374 -452 -3374H2680C2681.1 -3374 2682 -3373.1 2682 -3372V6062C2682 6063.1 2681.1 6064 2680 6064H-452C-453.105 6064 -454 6063.1 -454 6062V-3372Z" fill="#494949"/>
<path d="M-452 -3373H2680V-3375H-452V-3373ZM2681 -3372V6062H2683V-3372H2681ZM2680 6063H-452V6065H2680V6063ZM-453 6062V-3372H-455V6062H-453ZM-452 6063C-452.552 6063 -453 6062.55 -453 6062H-455C-455 6063.66 -453.657 6065 -452 6065V6063ZM2681 6062C2681 6062.55 2680.55 6063 2680 6063V6065C2681.66 6065 2683 6063.66 2683 6062H2681ZM2680 -3373C2680.55 -3373 2681 -3372.55 2681 -3372H2683C2683 -3373.66 2681.66 -3375 2680 -3375V-3373ZM-452 -3375C-453.657 -3375 -455 -3373.66 -455 -3372H-453C-453 -3372.55 -452.552 -3373 -452 -3373V-3375Z" fill="black" fill-opacity="0.1"/>
<g id="&#235;&#167;&#136;&#236;&#157;&#180;&#237;&#142;&#152;&#236;&#157;&#180;&#236;&#167;&#128;" clip-path="url(#clip0_0_1)">
<rect width="600" height="1229.94" transform="translate(-163 -256.12)" fill="#EDEDED"/>
<g id="Frame 70">
<rect x="-123" y="-131.12" width="157" height="206" rx="15" fill="#F8F8F8"/>
<g id="Frame 75">
<g id="Frame 74">
<g id="Frame 73">
<path id="Vector" d="M0.549409 0.677603C0.165822 1.06119 0.165822 1.68083 0.549409 2.06442L4.3656 5.88061L0.549409 9.6968C0.165822 10.0804 0.165822 10.7 0.549409 11.0836C0.932995 11.4672 1.55263 11.4672 1.93622 11.0836L6.45074 6.5691C6.83433 6.18551 6.83433 5.56587 6.45074 5.18229L1.93622 0.667767C1.56247 0.294017 0.932995 0.294017 0.549409 0.677603Z" fill="#494949"/>
</g>
</g>
</g>
</g>
</g>
</g>
<defs>
<clipPath id="clip0_0_1">
<rect width="600" height="1229.94" fill="white" transform="translate(-163 -256.12)"/>
</clipPath>
</defs>
</svg>
