<svg width="60" height="60" viewBox="0 0 60 60" fill="none" xmlns="http://www.w3.org/2000/svg">
<g id="undraw_female_avatar_efig 1" clip-path="url(#clip0_2449_63)">
<path id="Vector" d="M43.3301 43.3123H27.0801V21.3198L41.1308 29.0172L43.3301 43.3123Z" fill="#494949"/>
<path id="Vector_2" d="M30.0814 39.4309C35.9081 39.4309 40.6316 34.7074 40.6316 28.8807C40.6316 23.054 35.9081 18.3306 30.0814 18.3306C24.2547 18.3306 19.5312 23.054 19.5312 28.8807C19.5312 34.7074 24.2547 39.4309 30.0814 39.4309Z" fill="#FFB6B6"/>
<path id="Vector_3" d="M24.0253 40.9913L23.5487 36.1733L33.0667 34.3936L38.687 48.0778L28.9125 59.3184L21.9482 45.6342L24.0253 40.9913Z" fill="#FFB6B6"/>
<path id="Vector_4" d="M52.8416 52.1142C52.7231 52.2376 52.6022 52.3598 52.4812 52.4807C52.0976 52.8644 51.7066 53.237 51.307 53.5987C45.3202 59.0284 37.6387 61.9998 29.5003 61.9998C21.9972 61.9998 14.8826 59.4743 9.1267 54.8254C9.12304 54.8229 9.12059 54.8205 9.11692 54.8168C8.94221 54.6763 8.76993 54.5334 8.59766 54.388C8.6282 54.3 8.66119 54.2133 8.69418 54.1277C10.5452 49.3053 14.2009 46.946 16.4197 45.9135C17.5193 45.4016 18.2658 45.2147 18.2658 45.2147L20.8707 40.5229L22.7046 43.944L24.0559 46.4658L29.6005 56.8108L34.3838 44.9007L35.8659 41.2084L36.2459 40.2627L38.0529 41.669L39.7634 42.9995L43.2077 43.7595L46.002 44.3765L49.7969 45.2147C51.3315 46.4646 52.2649 48.8422 52.7867 51.7965C52.8062 51.9016 52.8245 52.0079 52.8416 52.1142Z" fill="#03AED2"/>
<path id="Vector_5" d="M24.5321 16.8914C25.8172 14.7327 28.1775 13.2516 30.6802 13.0333C33.183 12.815 35.764 13.8652 37.4034 15.7688C38.3804 16.9031 39.0209 18.2923 39.9732 19.4475C42.0224 21.9333 45.5168 23.3868 46.412 26.4815C46.8026 27.8319 46.608 29.2737 46.4103 30.6656C46.2409 31.8585 46.0715 33.0515 45.9021 34.2445C45.7702 35.1729 45.6438 36.1517 45.9919 37.0224C46.4003 38.0439 47.3777 38.713 48.0097 39.6135C49.085 41.1458 49.0064 43.3893 47.8265 44.8426C47.3148 45.4729 46.6364 45.9482 46.0999 46.5575C45.5635 47.1668 45.1655 47.9999 45.3902 48.7801C45.8206 50.2745 48.1643 50.6329 48.4213 52.1666C48.5527 52.9508 48.0111 53.7339 47.3014 54.0925C46.5918 54.4511 45.7564 54.4615 44.9671 54.3656C41.9671 54.0009 39.1895 52.1265 37.7289 49.4808C36.2683 46.8352 36.1619 43.486 37.4518 40.753C38.5111 38.5084 40.48 36.5249 40.4586 34.0429C40.4469 32.6908 39.8267 31.4279 39.2202 30.2193C37.979 27.7457 36.7377 25.272 35.4965 22.7984C34.8315 21.4734 34.0599 20.0455 32.6911 19.4762C31.6331 19.0363 30.4328 19.2069 29.3012 19.3869C28.1697 19.5668 26.9711 19.742 25.91 19.3097C24.8489 18.8774 24.0472 17.5931 24.5527 16.5649" fill="#494949"/>
<path id="Vector_6" d="M26.3813 17.0039C24.343 16.3329 22.0565 17.41 20.6766 19.0534C19.2966 20.6968 18.6272 22.8051 17.9896 24.854C17.6243 26.0277 17.259 27.2013 16.8938 28.375C16.5502 29.479 16.2066 30.5831 15.863 31.6871C15.4588 32.9857 15.0514 34.3654 15.3831 35.6844C15.6228 36.6379 16.2399 37.5038 16.2531 38.4869C16.267 39.514 15.6238 40.4156 15.0602 41.2742C14.4966 42.1328 13.9675 43.153 14.236 44.1444C14.6445 45.6523 16.741 46.4811 16.6261 48.0392C16.5877 48.5591 16.287 49.0401 16.2925 49.5614C16.2994 50.2247 16.8188 50.7979 17.4272 51.0622C18.0357 51.3265 18.7201 51.3408 19.3834 51.3292C21.4178 51.2934 23.4486 51.0518 25.4347 50.6092C26.1988 50.439 26.9759 50.2301 27.6119 49.7737C28.248 49.3173 28.7225 48.5611 28.6397 47.7827C28.5107 46.5696 27.2064 45.8814 26.5482 44.8542C25.9017 43.8454 25.9167 42.5671 25.6379 41.4017C25.2548 39.8001 24.3086 38.4019 23.5982 36.9162C20.9277 31.3306 21.8626 24.211 25.8845 19.5041C26.2401 19.0879 26.6286 18.6693 26.777 18.1424C26.9253 17.6154 26.7341 16.9441 26.2186 16.7598" fill="#494949"/>
<path id="Vector_7" d="M52.4809 6.51908C46.3426 0.380731 38.1809 -3 29.5 -3C20.8191 -3 12.6574 0.380731 6.51908 6.51908C0.380731 12.6574 -3 20.8191 -3 29.5C-3 37.4234 -0.183742 44.9143 4.97716 50.829C5.46955 51.3947 5.98393 51.9458 6.51908 52.4809C6.64493 52.6068 6.77199 52.7326 6.90029 52.8548C7.24239 53.1859 7.5906 53.5097 7.94493 53.8237C8.15997 54.0155 8.37745 54.2037 8.59737 54.3882C8.76965 54.5335 8.94192 54.6765 9.11664 54.817C9.1203 54.8207 9.12275 54.8231 9.12641 54.8256C14.8823 59.4745 21.9969 62 29.5 62C37.6384 62 45.3199 59.0286 51.3068 53.5989C51.7063 53.2372 52.0973 52.8646 52.4809 52.4809C52.6019 52.36 52.7228 52.2378 52.8414 52.1144C53.1712 51.7747 53.4914 51.4289 53.8041 51.0783C59.1031 45.1257 62 37.5358 62 29.5C62 20.8191 58.6193 12.6574 52.4809 6.51908ZM53.7247 50.7741C53.4193 51.121 53.1065 51.4632 52.7864 51.7967C52.2879 52.316 51.7735 52.8194 51.242 53.3044C51.0404 53.4901 50.8364 53.671 50.6299 53.8506C48.5443 55.6649 46.2228 57.2142 43.7194 58.4482C42.8409 58.882 41.9404 59.2766 41.0192 59.6297C37.4405 61.003 33.5564 61.7556 29.5 61.7556C25.5853 61.7556 21.832 61.0543 18.3584 59.7714C16.9325 59.246 15.5543 58.6217 14.2311 57.907C14.0368 57.8019 13.8438 57.6956 13.652 57.5868C12.6428 57.015 11.6665 56.3907 10.7294 55.7163C10.0293 55.2141 9.35 54.685 8.6939 54.1279C8.4642 53.9336 8.23694 53.7369 8.01335 53.5353C7.64925 53.2116 7.29248 52.878 6.94427 52.5359C6.28449 51.8896 5.65404 51.2164 5.0517 50.5163C0.187692 44.8666 -2.75564 37.5211 -2.75564 29.5C-2.75564 11.7142 11.7142 -2.75564 29.5 -2.75564C47.2858 -2.75564 61.7556 11.7142 61.7556 29.5C61.7556 37.6445 58.7219 45.0927 53.7247 50.7741Z" fill="white"/>
</g>
<defs>
<clipPath id="clip0_2449_63">
<rect width="65" height="65" fill="white" transform="translate(-3 -3)"/>
</clipPath>
</defs>
</svg>
