<svg width="40" height="41" viewBox="0 0 40 41" fill="none" xmlns="http://www.w3.org/2000/svg">
<g id="mdi:recent">
<path id="Vector" d="M22.5003 14.0135H20.0003V22.3468L27.1337 26.5802L28.3337 24.5635L22.5003 21.0968V14.0135ZM21.667 5.68018C17.6887 5.68018 13.8734 7.26053 11.0604 10.0736C8.24734 12.8866 6.66699 16.7019 6.66699 20.6802H1.66699L8.26699 27.3968L15.0003 20.6802H10.0003C10.0003 17.586 11.2295 14.6185 13.4174 12.4306C15.6053 10.2427 18.5728 9.01351 21.667 9.01351C24.7612 9.01351 27.7286 10.2427 29.9166 12.4306C32.1045 14.6185 33.3337 17.586 33.3337 20.6802C33.3337 23.7744 32.1045 26.7418 29.9166 28.9298C27.7286 31.1177 24.7612 32.3468 21.667 32.3468C18.4503 32.3468 15.5337 31.0302 13.4337 28.9135L11.067 31.2802C12.453 32.6809 14.1042 33.7914 15.9242 34.5469C17.7442 35.3024 19.6965 35.6876 21.667 35.6802C25.6452 35.6802 29.4605 34.0998 32.2736 31.2868C35.0866 28.4737 36.667 24.6584 36.667 20.6802C36.667 16.7019 35.0866 12.8866 32.2736 10.0736C29.4605 7.26053 25.6452 5.68018 21.667 5.68018Z" fill="#494949"/>
</g>
</svg>
