<svg width="288" height="450" viewBox="0 0 288 450" fill="none" xmlns="http://www.w3.org/2000/svg">
<path d="M0 39.3423C0 33.4212 2.63556 27.7131 7.34665 24.1263C90.0684 -38.8547 123.668 44.5039 222.944 34.3369C235.817 33.0186 248 42.4481 248 55.3881V390C248 401.046 239.046 410 228 410H20C8.9543 410 0 401.046 0 390V39.3423Z" fill="#FDDE55"/>
<path d="M0 39.3423C0 33.4212 2.63556 27.7131 7.34665 24.1263C90.0684 -38.8547 123.668 44.5039 222.944 34.3369C235.817 33.0186 248 42.4481 248 55.3881V390C248 401.046 239.046 410 228 410H20C8.9543 410 0 401.046 0 390V39.3423Z" fill="white" fill-opacity="0.3"/>
<g clip-path="url(#clip0_99_205)">
<path d="M251.942 318.012L261.042 356.625C271.851 354.077 278.146 343.763 275.567 332.823C272.989 321.883 262.752 315.465 251.942 318.012ZM199.559 323.565L155.05 334.054C148.056 335.702 143.698 342.843 145.366 349.922L151.433 375.663C153.101 382.742 160.188 387.185 167.183 385.537L173.541 384.038L178.091 403.345C179.759 410.424 186.847 414.867 193.841 413.218L206.558 410.222L198.975 378.045L211.691 375.048L243.191 394.795L255.908 391.798L231.643 288.832L218.926 291.829L199.559 323.565Z" fill="#F8F8F8" fill-opacity="0.3"/>
</g>
<defs>
<clipPath id="clip0_99_205">
<rect width="156.782" height="158.68" fill="white" transform="translate(119 295) rotate(-13.2607)"/>
</clipPath>
</defs>
</svg>
