<svg width="257" height="419" viewBox="0 0 257 419" fill="none" xmlns="http://www.w3.org/2000/svg">
<path d="M0 38.9668C0 33.0457 2.63556 27.3376 7.34665 23.7508C90.0684 -39.2303 123.668 44.1284 222.944 33.9613C235.817 32.643 248 42.0726 248 55.0126V389.624C248 400.67 239.046 409.624 228 409.624H20C8.9543 409.624 0 400.67 0 389.624V38.9668Z" fill="#03AED2"/>
<path d="M187.5 280C149.136 280 118 311.136 118 349.5C118 387.864 149.136 419 187.5 419C225.864 419 257 387.864 257 349.5C257 311.136 225.864 280 187.5 280ZM239.347 329.484L220.026 337.477C216.481 328.025 209.045 320.518 199.523 317.043L207.516 297.723C222.111 303.283 233.717 314.889 239.347 329.484ZM187.5 370.35C175.963 370.35 166.65 361.037 166.65 349.5C166.65 337.963 175.963 328.65 187.5 328.65C199.037 328.65 208.35 337.963 208.35 349.5C208.35 361.037 199.037 370.35 187.5 370.35ZM167.554 297.653L175.685 316.974C166.094 320.449 158.518 328.024 154.974 337.615L135.653 329.554C141.282 314.889 152.889 303.282 167.554 297.653ZM135.653 369.446L154.974 361.454C158.518 371.045 166.024 378.551 175.615 382.026L167.484 401.347C152.889 395.717 141.282 384.111 135.653 369.446ZM207.516 401.347L199.523 382.026C209.045 378.481 216.551 370.975 220.026 361.384L239.347 369.516C233.717 384.111 222.111 395.717 207.516 401.347Z" fill="#F8F8F8" fill-opacity="0.1"/>
</svg>
