<svg width="276" height="404" viewBox="0 0 276 404" fill="none" xmlns="http://www.w3.org/2000/svg">
<rect width="248" height="380" rx="20" fill="#FDDE55" fill-opacity="0.3"/>
<path d="M265.334 340C265.334 354.145 259.715 367.71 249.713 377.712C239.711 387.714 226.145 393.333 212 393.333C197.855 393.333 184.29 387.714 174.288 377.712C164.286 367.71 158.667 354.145 158.667 340C158.667 325.855 164.286 312.29 174.288 302.288C184.29 292.286 197.855 286.667 212 286.667C226.145 286.667 239.711 292.286 249.713 302.288C259.715 312.29 265.334 325.855 265.334 340ZM206.667 345.333V361.333C206.667 362.748 207.229 364.104 208.229 365.105C209.229 366.105 210.586 366.667 212 366.667C213.415 366.667 214.771 366.105 215.772 365.105C216.772 364.104 217.334 362.748 217.334 361.333V345.333C217.334 343.919 216.772 342.562 215.772 341.562C214.771 340.562 213.415 340 212 340C210.586 340 209.229 340.562 208.229 341.562C207.229 342.562 206.667 343.919 206.667 345.333ZM212 316C209.879 316 207.844 316.843 206.343 318.343C204.843 319.843 204 321.878 204 324C204 326.122 204.843 328.157 206.343 329.657C207.844 331.157 209.879 332 212 332C214.122 332 216.157 331.157 217.657 329.657C219.157 328.157 220 326.122 220 324C220 321.878 219.157 319.843 217.657 318.343C216.157 316.843 214.122 316 212 316Z" fill="#F8F8F8" fill-opacity="0.45"/>
</svg>
