<svg width="40" height="40" viewBox="0 0 40 40" fill="none" xmlns="http://www.w3.org/2000/svg">
<g clip-path="url(#clip0_2115_117)">
<rect width="40" height="40" rx="20" fill="#E9E7E7"/>
<g clip-path="url(#clip1_2115_117)">
<path d="M28.5107 28.4999H18.5107V14.9661L27.1574 19.7029L28.5107 28.4999Z" fill="#494949"/>
<path d="M20.3576 26.1113C23.9433 26.1113 26.85 23.2045 26.85 19.6189C26.85 16.0332 23.9433 13.1265 20.3576 13.1265C16.772 13.1265 13.8652 16.0332 13.8652 19.6189C13.8652 23.2045 16.772 26.1113 20.3576 26.1113Z" fill="#FFB6B6"/>
<path d="M16.6307 27.0714L16.3374 24.1064L22.1946 23.0112L25.6533 31.4323L19.6383 38.3496L15.3525 29.9285L16.6307 27.0714Z" fill="#FFB6B6"/>
<path d="M34.3638 33.9165C34.2909 33.9925 34.2164 34.0677 34.142 34.1421C33.9059 34.3782 33.6653 34.6075 33.4194 34.8301C29.7352 38.1714 25.0081 40 19.9999 40C15.3826 40 11.0044 38.4458 7.46228 35.5849C7.46003 35.5834 7.45853 35.5819 7.45627 35.5797C7.34875 35.4932 7.24274 35.4052 7.13672 35.3158C7.15552 35.2616 7.17582 35.2083 7.19612 35.1556C8.33521 32.188 10.5848 30.7361 11.9503 30.1007C12.6269 29.7857 13.0863 29.6707 13.0863 29.6707L14.6894 26.7834L15.8179 28.8887L16.6495 30.4406L20.0615 36.8067L23.0051 29.4774L23.9172 27.2052L24.151 26.6233L25.263 27.4887L26.3157 28.3075L28.4352 28.7752L30.1548 29.1549L32.4901 29.6707C33.4345 30.4398 34.0089 31.903 34.33 33.721C34.342 33.7857 34.3533 33.8511 34.3638 33.9165Z" fill="#FDDE55"/>
<path d="M16.9432 12.2408C17.7341 10.9124 19.1865 10.001 20.7267 9.86663C22.2668 9.73229 23.8551 10.3785 24.864 11.55C25.4652 12.248 25.8594 13.1029 26.4454 13.8138C27.7065 15.3435 29.8569 16.238 30.4078 18.1424C30.6482 18.9735 30.5284 19.8607 30.4067 20.7172C30.3025 21.4514 30.1982 22.1855 30.094 22.9197C30.0128 23.491 29.935 24.0933 30.1493 24.6291C30.4006 25.2577 31.0021 25.6695 31.391 26.2237C32.0527 27.1666 32.0043 28.5472 31.2782 29.4416C30.9633 29.8294 30.5458 30.1219 30.2157 30.4969C29.8856 30.8719 29.6407 31.3845 29.779 31.8646C30.0438 32.7843 31.4861 33.0048 31.6443 33.9487C31.7251 34.4312 31.3918 34.9131 30.9551 35.1338C30.5184 35.3545 30.0043 35.3609 29.5186 35.3019C27.6725 35.0775 25.9632 33.9239 25.0643 32.2959C24.1655 30.6678 24.1 28.6067 24.8938 26.9249C25.5457 25.5436 26.7573 24.323 26.7441 22.7956C26.7369 21.9635 26.3553 21.1864 25.9821 20.4426C25.2182 18.9204 24.4544 17.3981 23.6905 15.8759C23.2813 15.0605 22.8065 14.1818 21.9641 13.8315C21.3131 13.5608 20.5744 13.6658 19.8781 13.7765C19.1817 13.8872 18.4441 13.995 17.7911 13.729C17.1382 13.463 16.6448 12.6726 16.9559 12.0399" fill="#494949"/>
<path d="M18.0808 12.3101C16.8265 11.8973 15.4194 12.5601 14.5702 13.5714C13.721 14.5827 13.3091 15.8801 12.9167 17.141C12.6919 17.8632 12.4671 18.5855 12.2423 19.3077C12.0309 19.9871 11.8194 20.6666 11.608 21.346C11.3593 22.1451 11.1085 22.9941 11.3126 23.8058C11.4602 24.3926 11.8399 24.9255 11.8481 25.5305C11.8566 26.1625 11.4608 26.7173 11.114 27.2457C10.7671 27.7741 10.4415 28.4019 10.6068 29.012C10.8582 29.9399 12.1483 30.45 12.0776 31.4088C12.054 31.7287 11.8689 32.0247 11.8723 32.3455C11.8766 32.7537 12.1962 33.1065 12.5706 33.2691C12.945 33.4317 13.3662 33.4406 13.7744 33.4334C15.0264 33.4114 16.2761 33.2627 17.4983 32.9903C17.9685 32.8856 18.4467 32.7571 18.8381 32.4762C19.2295 32.1953 19.5215 31.73 19.4706 31.2509C19.3912 30.5044 18.5886 30.0809 18.1835 29.4488C17.7857 28.828 17.7949 28.0413 17.6233 27.3242C17.3876 26.3386 16.8053 25.4781 16.3681 24.5638C14.7248 21.1265 15.3 16.7453 17.7751 13.8487C17.9939 13.5926 18.233 13.335 18.3243 13.0107C18.4156 12.6865 18.2979 12.2733 17.9807 12.1599" fill="#494949"/>
<path d="M34.1421 5.85789C30.3647 2.08045 25.3421 0 20 0C14.6579 0 9.63534 2.08045 5.85789 5.85789C2.08045 9.63533 0 14.6579 0 20C0 24.8759 1.73308 29.4857 4.90902 33.1256C5.21203 33.4737 5.52857 33.8128 5.85789 34.1421C5.93534 34.2195 6.01353 34.297 6.09248 34.3722C6.30301 34.5759 6.51729 34.7752 6.73534 34.9684C6.86767 35.0865 7.0015 35.2023 7.13684 35.3158C7.24286 35.4053 7.34887 35.4932 7.45639 35.5797C7.45865 35.582 7.46015 35.5835 7.46241 35.585C11.0045 38.4459 15.3827 40 20 40C25.0083 40 29.7353 38.1714 33.4195 34.8301C33.6654 34.6075 33.906 34.3782 34.1421 34.1421C34.2165 34.0677 34.291 33.9925 34.3639 33.9165C34.5669 33.7075 34.7639 33.4947 34.9564 33.2789C38.2173 29.6158 40 24.9451 40 20C40 14.6579 37.9195 9.63533 34.1421 5.85789ZM34.9075 33.0917C34.7195 33.3053 34.5271 33.5158 34.3301 33.7211C34.0233 34.0406 33.7068 34.3504 33.3797 34.6489C33.2556 34.7632 33.1301 34.8744 33.003 34.985C31.7195 36.1015 30.291 37.0549 28.7504 37.8143C28.2098 38.0812 27.6556 38.3241 27.0887 38.5414C24.8865 39.3865 22.4962 39.8496 20 39.8496C17.591 39.8496 15.2812 39.418 13.1436 38.6286C12.2662 38.3053 11.418 37.9211 10.6038 37.4812C10.4842 37.4165 10.3654 37.3511 10.2474 37.2842C9.62632 36.9323 9.02556 36.5481 8.44887 36.1331C8.01805 35.8241 7.6 35.4985 7.19624 35.1556C7.05489 35.0361 6.91504 34.915 6.77744 34.791C6.55338 34.5917 6.33383 34.3865 6.11955 34.1759C5.71353 33.7782 5.32557 33.3639 4.95489 32.9331C1.96166 29.4564 0.150376 24.9361 0.150376 20C0.150376 9.05489 9.05489 0.150376 20 0.150376C30.9451 0.150376 39.8496 9.05489 39.8496 20C39.8496 25.012 37.9827 29.5955 34.9075 33.0917Z" fill="#F1F0F0"/>
</g>
</g>
<rect x="0.5" y="0.5" width="39" height="39" rx="19.5" stroke="#F8F8F8"/>
<defs>
<clipPath id="clip0_2115_117">
<rect width="40" height="40" rx="20" fill="white"/>
</clipPath>
<clipPath id="clip1_2115_117">
<rect width="40" height="40" fill="white"/>
</clipPath>
</defs>
</svg>
