<svg width="45" height="45" viewBox="0 0 45 45" fill="none" xmlns="http://www.w3.org/2000/svg">
<g clip-path="url(#clip0_2002_17)">
<rect width="45" height="45" rx="22.5" fill="#E9E7E7"/>
<g clip-path="url(#clip1_2002_17)">
<path d="M32.0742 32.0625H20.8242V16.8369L30.5517 22.1659L32.0742 32.0625Z" fill="#494949"/>
<path d="M22.9026 29.3752C26.9364 29.3752 30.2065 26.1052 30.2065 22.0713C30.2065 18.0374 26.9364 14.7673 22.9026 14.7673C18.8687 14.7673 15.5986 18.0374 15.5986 22.0713C15.5986 26.1052 18.8687 29.3752 22.9026 29.3752Z" fill="#FFB6B6"/>
<path d="M18.7095 30.4554L18.3795 27.1198L24.9689 25.8877L28.8598 35.3614L22.0929 43.1433L17.2715 33.6697L18.7095 30.4554Z" fill="#FFB6B6"/>
<path d="M38.6597 38.1561C38.5777 38.2415 38.494 38.3261 38.4102 38.4098C38.1446 38.6754 37.8739 38.9334 37.5973 39.1838C33.4526 42.9428 28.1347 45 22.5004 45C17.3059 45 12.3804 43.2515 8.39556 40.033C8.39302 40.0313 8.39133 40.0297 8.38879 40.0271C8.26783 39.9298 8.14857 39.8309 8.0293 39.7302C8.05044 39.6693 8.07328 39.6093 8.09612 39.55C9.3776 36.2114 11.9084 34.5781 13.4445 33.8633C14.2058 33.5089 14.7226 33.3795 14.7226 33.3795L16.526 30.1313L17.7957 32.4998L18.7312 34.2456L22.5697 41.4076L25.8813 33.1621L26.9073 30.6059L27.1704 29.9512L28.4214 30.9248L29.6056 31.8459L31.9901 32.372L33.9246 32.7992L36.5519 33.3795C37.6143 34.2448 38.2605 35.8908 38.6217 37.9361C38.6352 38.0089 38.6479 38.0825 38.6597 38.1561Z" fill="#03AED2"/>
<path d="M19.061 13.771C19.9507 12.2765 21.5847 11.2511 23.3174 11.1C25.05 10.9489 26.8369 11.6759 27.9719 12.9938C28.6482 13.7791 29.0917 14.7409 29.751 15.5406C31.1697 17.2615 33.5889 18.2678 34.2086 20.4103C34.4791 21.3452 34.3443 22.3434 34.2075 23.3069C34.0902 24.1329 33.9729 24.9588 33.8556 25.7847C33.7643 26.4274 33.6768 27.105 33.9178 27.7078C34.2005 28.415 34.8772 28.8782 35.3147 29.5017C36.0591 30.5625 36.0047 32.1157 35.1879 33.1218C34.8336 33.5582 34.3639 33.8872 33.9925 34.3091C33.6212 34.7309 33.3457 35.3077 33.5012 35.8477C33.7992 36.8823 35.4217 37.1305 35.5997 38.1923C35.6907 38.7352 35.3157 39.2773 34.8244 39.5256C34.3331 39.7738 33.7547 39.7811 33.2083 39.7146C31.1314 39.4622 29.2084 38.1645 28.1972 36.3329C27.186 34.5013 27.1124 32.1826 28.0054 30.2906C28.7388 28.7366 30.1019 27.3634 30.087 25.6451C30.0789 24.709 29.6495 23.8347 29.2297 22.998C28.3704 21.2855 27.511 19.573 26.6517 17.8605C26.1914 16.9431 25.6572 15.9546 24.7095 15.5605C23.9771 15.2559 23.1461 15.3741 22.3627 15.4986C21.5793 15.6232 20.7495 15.7445 20.0149 15.4452C19.2803 15.1459 18.7253 14.2568 19.0753 13.5449" fill="#494949"/>
<path d="M20.3409 13.8489C18.9298 13.3844 17.3468 14.1301 16.3915 15.2678C15.4361 16.4055 14.9727 17.8651 14.5312 19.2836C14.2784 20.0962 14.0255 20.9087 13.7726 21.7212C13.5347 22.4856 13.2969 23.2499 13.059 24.0142C12.7792 24.9133 12.4971 25.8684 12.7267 26.7816C12.8927 27.4417 13.3199 28.0412 13.3291 28.7218C13.3387 29.4328 12.8934 30.057 12.5032 30.6515C12.113 31.2459 11.7467 31.9522 11.9326 32.6385C12.2154 33.6824 13.6668 34.2563 13.5873 35.3349C13.5607 35.6949 13.3526 36.0278 13.3563 36.3888C13.3611 36.848 13.7207 37.2448 14.1419 37.4278C14.5632 37.6107 15.037 37.6207 15.4962 37.6126C16.9047 37.5878 18.3106 37.4206 19.6856 37.1142C20.2146 36.9963 20.7525 36.8517 21.1929 36.5357C21.6332 36.2198 21.9617 35.6963 21.9044 35.1573C21.8151 34.3175 20.9121 33.841 20.4564 33.1299C20.0089 32.4315 20.0192 31.5465 19.8262 30.7397C19.561 29.6309 18.9059 28.6629 18.4142 27.6344C16.5654 23.7674 17.2125 18.8384 19.997 15.5798C20.2432 15.2917 20.5121 15.0019 20.6148 14.6371C20.7175 14.2723 20.5851 13.8075 20.2283 13.6799" fill="#494949"/>
<path d="M38.4099 6.59013C34.1602 2.34051 28.5099 0 22.5 0C16.4901 0 10.8398 2.34051 6.59013 6.59013C2.34051 10.8398 0 16.4901 0 22.5C0 27.9854 1.94972 33.1714 5.52265 37.2663C5.86353 37.6579 6.21965 38.0394 6.59013 38.4099C6.67726 38.497 6.76522 38.5841 6.85404 38.6687C7.09089 38.8979 7.33195 39.1221 7.57726 39.3395C7.72613 39.4723 7.87669 39.6025 8.02895 39.7303C8.14822 39.8309 8.26748 39.9299 8.38844 40.0272C8.39098 40.0297 8.39267 40.0314 8.39521 40.0331C12.3801 43.2516 17.3055 45 22.5 45C28.1343 45 33.4523 42.9429 37.597 39.1838C37.8736 38.9335 38.1443 38.6755 38.4099 38.4099C38.4936 38.3261 38.5774 38.2415 38.6594 38.1561C38.8878 37.921 39.1094 37.6816 39.3259 37.4388C42.9945 33.3178 45 28.0632 45 22.5C45 16.4901 42.6595 10.8398 38.4099 6.59013ZM39.271 37.2282C39.0595 37.4684 38.843 37.7053 38.6213 37.9362C38.2762 38.2957 37.9201 38.6442 37.5522 38.98C37.4126 39.1086 37.2713 39.2337 37.1284 39.3581C35.6845 40.6142 34.0773 41.6867 32.3442 42.5411C31.736 42.8414 31.1126 43.1146 30.4748 43.359C27.9973 44.3098 25.3083 44.8308 22.5 44.8308C19.7899 44.8308 17.1914 44.3453 14.7866 43.4571C13.7994 43.0934 12.8453 42.6612 11.9292 42.1664C11.7947 42.0936 11.6611 42.02 11.5283 41.9447C10.8296 41.5489 10.1538 41.1166 9.50498 40.6497C9.0203 40.3021 8.55 39.9358 8.09577 39.5501C7.93675 39.4156 7.77942 39.2794 7.62463 39.1398C7.37255 38.9157 7.12556 38.6848 6.88449 38.4479C6.42773 38.0005 5.99126 37.5344 5.57425 37.0497C2.20686 33.1384 0.169173 28.0531 0.169173 22.5C0.169173 10.1867 10.1867 0.169173 22.5 0.169173C34.8133 0.169173 44.8308 10.1867 44.8308 22.5C44.8308 28.1385 42.7305 33.2949 39.271 37.2282Z" fill="#3F3D56"/>
</g>
</g>
<rect x="0.5" y="0.5" width="44" height="44" rx="22" stroke="#F8F8F8"/>
<defs>
<clipPath id="clip0_2002_17">
<rect width="45" height="45" rx="22.5" fill="white"/>
</clipPath>
<clipPath id="clip1_2002_17">
<rect width="45" height="45" fill="white"/>
</clipPath>
</defs>
</svg>
