<svg width="268" height="433" viewBox="0 0 268 433" fill="none" xmlns="http://www.w3.org/2000/svg">
<path d="M0 38.9668C0 33.0457 2.63556 27.3376 7.34665 23.7508C90.0684 -39.2303 123.668 44.1284 222.944 33.9613C235.817 32.643 248 42.0726 248 55.0126V389.624C248 400.67 239.046 409.624 228 409.624H20C8.9543 409.624 0 400.67 0 389.624V38.9668Z" fill="#FDDE55"/>
<path d="M228.091 291.238C231.158 289.516 233.166 288.403 234.762 287.767C236.26 287.171 236.916 287.204 237.366 287.316C237.803 287.436 238.38 287.714 239.36 288.953C240.414 290.271 241.573 292.199 243.342 295.18L250.656 307.476C252.431 310.457 253.571 312.392 254.227 313.929C254.836 315.373 254.79 315.969 254.69 316.354C254.578 316.745 254.306 317.294 253.014 318.255C251.656 319.275 249.662 320.402 246.588 322.124L220.539 336.712C217.637 338.342 215.755 339.389 214.265 339.978C212.873 340.535 212.304 340.489 211.946 340.389C211.582 340.296 211.065 340.058 210.137 338.885C209.144 337.64 208.05 335.805 206.361 332.963L198.544 319.838C196.808 316.917 195.695 315.022 195.052 313.525C194.456 312.114 194.502 311.537 194.602 311.18C194.694 310.822 194.946 310.298 196.178 309.378C197.49 308.384 199.418 307.304 202.406 305.628L228.091 291.238ZM166.227 329.981L189.083 317.188C189.918 318.931 191.09 320.898 192.415 323.124L200.458 336.639C201.671 338.68 202.757 340.502 203.797 341.992L193.548 347.73L221.214 412.588C221.479 413.214 221.617 413.887 221.62 414.566C221.623 415.246 221.492 415.919 221.233 416.548C220.974 417.176 220.593 417.747 220.113 418.227C219.632 418.708 219.06 419.088 218.432 419.346C217.156 419.882 215.721 419.893 214.437 419.377C213.153 418.861 212.125 417.86 211.575 416.59L188.5 362.503L165.425 416.59C164.875 417.858 163.848 418.858 162.566 419.374C161.284 419.89 159.85 419.88 158.575 419.346C157.946 419.088 157.375 418.708 156.894 418.227C156.413 417.747 156.033 417.176 155.774 416.548C155.515 415.919 155.384 415.246 155.387 414.566C155.39 413.887 155.528 413.214 155.792 412.588L180.278 355.163C177.615 356.654 175.846 357.627 174.435 358.191C173.037 358.747 172.468 358.701 172.11 358.608C171.745 358.508 171.229 358.27 170.301 357.097C169.314 355.852 168.214 354.017 166.525 351.175L162.371 344.192C160.629 341.277 159.516 339.382 158.873 337.878C158.277 336.467 158.323 335.897 158.423 335.54C158.522 335.175 158.767 334.659 159.999 333.731C161.311 332.744 163.246 331.657 166.227 329.988" fill="#F8F8F8" fill-opacity="0.25"/>
<path d="M152.904 341.548L130.412 354.149C127.338 355.872 125.344 356.998 123.985 358.012C122.694 358.979 122.422 359.529 122.316 359.913C122.21 360.297 122.164 360.893 122.773 362.338C123.422 363.875 124.568 365.816 126.344 368.797C128.119 371.778 129.272 373.706 130.319 375.025C131.306 376.263 131.882 376.548 132.32 376.661C132.77 376.78 133.426 376.807 134.93 376.21C136.52 375.574 138.527 374.461 141.595 372.739L163.967 360.204C162.921 358.72 161.841 356.892 160.622 354.858L156.236 347.484C154.911 345.258 153.745 343.291 152.904 341.548Z" fill="#F8F8F8" fill-opacity="0.25"/>
</svg>
