<svg width="40" height="41" viewBox="0 0 40 41" fill="none" xmlns="http://www.w3.org/2000/svg">
<path d="M27.7292 14.6384L31.4753 18.1334H17.5C17.1197 18.1334 16.7525 18.2743 16.4797 18.5289C16.2064 18.784 16.05 19.133 16.05 19.5001C16.05 19.8672 16.2064 20.2162 16.4797 20.4712C16.7525 20.7259 17.1197 20.8667 17.5 20.8667H31.4753L27.7292 24.3617L27.7292 24.3618C27.4557 24.6169 27.2993 24.9661 27.2993 25.3334C27.2993 25.7006 27.4557 26.0498 27.7292 26.305C28.0021 26.5598 28.3695 26.7007 28.75 26.7007C29.1305 26.7007 29.4979 26.5598 29.7708 26.305L36.0208 20.4718C36.1562 20.3455 36.2644 20.1949 36.3385 20.028C36.4126 19.8611 36.451 19.6817 36.451 19.5001C36.451 19.3185 36.4126 19.139 36.3385 18.9721C36.2644 18.8053 36.1562 18.6546 36.0208 18.5284L29.7708 12.6952C29.4979 12.4404 29.1305 12.2995 28.75 12.2995C28.3695 12.2995 28.0021 12.4404 27.7292 12.6952C27.4557 12.9503 27.2993 13.2995 27.2993 13.6668C27.2993 14.034 27.4557 14.3832 27.7292 14.6384L27.7292 14.6384ZM18.5203 33.3045C18.7936 33.0494 18.95 32.7004 18.95 32.3333C18.95 31.9663 18.7936 31.6172 18.5203 31.3622C18.2475 31.1075 17.8803 30.9667 17.5 30.9667H8.95V8.03348H17.5C17.8803 8.03348 18.2475 7.89261 18.5203 7.63798C18.7936 7.38292 18.95 7.0339 18.95 6.66682C18.95 6.29973 18.7936 5.95072 18.5203 5.69565C18.2476 5.44107 17.8803 5.3 17.5 5.3H7.5C7.11965 5.3 6.75243 5.44107 6.47965 5.69565C6.20637 5.95072 6.05 6.29973 6.05 6.66682V32.3333C6.05 32.7004 6.20637 33.0494 6.47965 33.3045C6.75247 33.5591 7.11972 33.7 7.5 33.7H17.5C17.8803 33.7 18.2475 33.5591 18.5203 33.3045Z" fill="#494949" stroke="#494949" stroke-width="0.4"/>
</svg>
