<svg width="40" height="41" viewBox="0 0 40 41" fill="none" xmlns="http://www.w3.org/2000/svg">
<g id="ic:baseline-reviews">
<g id="Vector">
<path d="M33.334 3.83325H6.66732C4.83398 3.83325 3.33398 5.33325 3.33398 7.16659V37.1666L10.0007 30.4999H33.334C35.1673 30.4999 36.6673 28.9999 36.6673 27.1666V7.16659C36.6673 5.33325 35.1673 3.83325 33.334 3.83325ZM22.6173 19.7833L20.0007 25.4999L17.384 19.7833L11.6673 17.1666L17.384 14.5499L20.0007 8.83325L22.6173 14.5499L28.334 17.1666L22.6173 19.7833Z" fill="#494949"/>
<path d="M33.334 3.83325H6.66732C4.83398 3.83325 3.33398 5.33325 3.33398 7.16659V37.1666L10.0007 30.4999H33.334C35.1673 30.4999 36.6673 28.9999 36.6673 27.1666V7.16659C36.6673 5.33325 35.1673 3.83325 33.334 3.83325ZM22.6173 19.7833L20.0007 25.4999L17.384 19.7833L11.6673 17.1666L17.384 14.5499L20.0007 8.83325L22.6173 14.5499L28.334 17.1666L22.6173 19.7833Z" fill="white" fill-opacity="0.3"/>
</g>
</g>
</svg>
