<svg width="40" height="41" viewBox="0 0 40 41" fill="none" xmlns="http://www.w3.org/2000/svg">
<g id="ph:student-fill">
<g id="Vector">
<path d="M35.3953 9.49433L20.3953 4.49433C20.1387 4.40879 19.8613 4.40879 19.6047 4.49433L4.60469 9.49433C4.35579 9.5773 4.13931 9.73649 3.98591 9.94934C3.83252 10.1622 3.74998 10.4179 3.75 10.6803V23.1803C3.75 23.5118 3.8817 23.8297 4.11612 24.0642C4.35054 24.2986 4.66848 24.4303 5 24.4303C5.33152 24.4303 5.64946 24.2986 5.88388 24.0642C6.1183 23.8297 6.25 23.5118 6.25 23.1803V12.4146L11.4984 14.1631C10.104 16.4159 9.66057 19.13 10.2655 21.7095C10.8705 24.289 12.4744 26.5229 14.725 27.9209C11.9125 29.024 9.48125 31.0193 7.70312 33.7475C7.61065 33.8849 7.54642 34.0394 7.51416 34.2018C7.4819 34.3643 7.48226 34.5316 7.51522 34.6939C7.54818 34.8563 7.61308 35.0105 7.70615 35.1475C7.79922 35.2846 7.9186 35.4017 8.05735 35.4922C8.1961 35.5827 8.35146 35.6447 8.51439 35.6747C8.67732 35.7046 8.84457 35.7019 9.00643 35.6666C9.16829 35.6313 9.32152 35.5642 9.45722 35.4692C9.59291 35.3742 9.70837 35.2531 9.79688 35.1131C12.1516 31.5006 15.8703 29.4303 20 29.4303C24.1297 29.4303 27.8484 31.5006 30.2031 35.1131C30.3865 35.3856 30.6697 35.575 30.9915 35.6403C31.3134 35.7056 31.648 35.6417 31.9231 35.4623C32.1982 35.2829 32.3916 35.0024 32.4616 34.6815C32.5315 34.3606 32.4723 34.0251 32.2969 33.7475C30.5187 31.0193 28.0781 29.024 25.275 27.9209C27.5235 26.523 29.1258 24.2905 29.7307 21.7129C30.3356 19.1353 29.8935 16.4231 28.5016 14.1709L35.3953 11.874C35.6443 11.7911 35.8608 11.6319 36.0143 11.4191C36.1677 11.2062 36.2503 10.9505 36.2503 10.6881C36.2503 10.4257 36.1677 10.1699 36.0143 9.95709C35.8608 9.74423 35.6443 9.58507 35.3953 9.50214V9.49433ZM27.5 19.4303C27.5003 20.616 27.2195 21.7849 26.6806 22.8411C26.1418 23.8972 25.3601 24.8106 24.3999 25.5062C23.4397 26.2018 22.3282 26.6598 21.1567 26.8427C19.9851 27.0255 18.7869 26.928 17.6604 26.5581C16.5338 26.1883 15.5111 25.5565 14.6759 24.7148C13.8408 23.8731 13.2171 22.8454 12.8561 21.716C12.4951 20.5866 12.407 19.3877 12.599 18.2176C12.7911 17.0476 13.2578 15.9397 13.9609 14.985L19.6047 16.86C19.8613 16.9455 20.1387 16.9455 20.3953 16.86L26.0391 14.985C26.9886 16.2725 27.5006 17.8304 27.5 19.4303Z" fill="#494949"/>
<path d="M35.3953 9.49433L20.3953 4.49433C20.1387 4.40879 19.8613 4.40879 19.6047 4.49433L4.60469 9.49433C4.35579 9.5773 4.13931 9.73649 3.98591 9.94934C3.83252 10.1622 3.74998 10.4179 3.75 10.6803V23.1803C3.75 23.5118 3.8817 23.8297 4.11612 24.0642C4.35054 24.2986 4.66848 24.4303 5 24.4303C5.33152 24.4303 5.64946 24.2986 5.88388 24.0642C6.1183 23.8297 6.25 23.5118 6.25 23.1803V12.4146L11.4984 14.1631C10.104 16.4159 9.66057 19.13 10.2655 21.7095C10.8705 24.289 12.4744 26.5229 14.725 27.9209C11.9125 29.024 9.48125 31.0193 7.70312 33.7475C7.61065 33.8849 7.54642 34.0394 7.51416 34.2018C7.4819 34.3643 7.48226 34.5316 7.51522 34.6939C7.54818 34.8563 7.61308 35.0105 7.70615 35.1475C7.79922 35.2846 7.9186 35.4017 8.05735 35.4922C8.1961 35.5827 8.35146 35.6447 8.51439 35.6747C8.67732 35.7046 8.84457 35.7019 9.00643 35.6666C9.16829 35.6313 9.32152 35.5642 9.45722 35.4692C9.59291 35.3742 9.70837 35.2531 9.79688 35.1131C12.1516 31.5006 15.8703 29.4303 20 29.4303C24.1297 29.4303 27.8484 31.5006 30.2031 35.1131C30.3865 35.3856 30.6697 35.575 30.9915 35.6403C31.3134 35.7056 31.648 35.6417 31.9231 35.4623C32.1982 35.2829 32.3916 35.0024 32.4616 34.6815C32.5315 34.3606 32.4723 34.0251 32.2969 33.7475C30.5187 31.0193 28.0781 29.024 25.275 27.9209C27.5235 26.523 29.1258 24.2905 29.7307 21.7129C30.3356 19.1353 29.8935 16.4231 28.5016 14.1709L35.3953 11.874C35.6443 11.7911 35.8608 11.6319 36.0143 11.4191C36.1677 11.2062 36.2503 10.9505 36.2503 10.6881C36.2503 10.4257 36.1677 10.1699 36.0143 9.95709C35.8608 9.74423 35.6443 9.58507 35.3953 9.50214V9.49433ZM27.5 19.4303C27.5003 20.616 27.2195 21.7849 26.6806 22.8411C26.1418 23.8972 25.3601 24.8106 24.3999 25.5062C23.4397 26.2018 22.3282 26.6598 21.1567 26.8427C19.9851 27.0255 18.7869 26.928 17.6604 26.5581C16.5338 26.1883 15.5111 25.5565 14.6759 24.7148C13.8408 23.8731 13.2171 22.8454 12.8561 21.716C12.4951 20.5866 12.407 19.3877 12.599 18.2176C12.7911 17.0476 13.2578 15.9397 13.9609 14.985L19.6047 16.86C19.8613 16.9455 20.1387 16.9455 20.3953 16.86L26.0391 14.985C26.9886 16.2725 27.5006 17.8304 27.5 19.4303Z" fill="white" fill-opacity="0.5"/>
</g>
</g>
</svg>
