<svg width="104" height="33" viewBox="0 0 104 33" fill="none" xmlns="http://www.w3.org/2000/svg">
<rect x="0.5" y="0.5" width="103" height="32" rx="16" stroke="#494949"/>
<rect x="0.5" y="0.5" width="103" height="32" rx="16" stroke="white" stroke-opacity="0.5"/>
<path d="M16.08 10.3H17.1V11.695C17.1 14.26 15.63 16.375 13.35 17.245L12.705 16.24C14.745 15.505 16.08 13.72 16.08 11.695V10.3ZM16.305 10.3H17.31V11.785C17.31 13.615 18.66 15.31 20.61 15.985L19.98 16.975C17.775 16.165 16.305 14.14 16.305 11.785V10.3ZM22.02 9.61H23.265V17.815H22.02V9.61ZM22.92 13.18H25.275V14.23H22.92V13.18ZM14.46 18.49H23.265V23.17H22.02V19.525H14.46V18.49ZM36.5238 9.61H37.7238V23.17H36.5238V9.61ZM31.5888 14.47H34.1838V15.505H31.5888V14.47ZM33.8088 9.925H34.9788V22.48H33.8088V9.925ZM28.9788 11.71H29.9388V13.435C29.9388 16.405 28.7988 19.21 26.8038 20.47L26.0388 19.54C27.9288 18.4 28.9788 15.925 28.9788 13.435V11.71ZM29.2338 11.71H30.1938V13.435C30.1938 15.79 31.2138 18.145 33.0738 19.225L32.3088 20.14C30.3288 18.94 29.2338 16.27 29.2338 13.435V11.71ZM26.4138 11.185H32.6088V12.22H26.4138V11.185ZM48.8677 9.61H50.1127V23.17H48.8677V9.61ZM49.8127 15.175H52.3327V16.225H49.8127V15.175ZM39.6127 11.77H47.6077V12.79H39.6127V11.77ZM43.6627 13.915C45.5827 13.915 46.9627 15.205 46.9627 17.035C46.9627 18.865 45.5827 20.155 43.6627 20.155C41.7577 20.155 40.3627 18.865 40.3627 17.035C40.3627 15.205 41.7577 13.915 43.6627 13.915ZM43.6627 14.95C42.4327 14.95 41.5477 15.805 41.5477 17.035C41.5477 18.25 42.4327 19.12 43.6627 19.12C44.8927 19.12 45.7777 18.25 45.7777 17.035C45.7777 15.805 44.8927 14.95 43.6627 14.95ZM43.0177 9.775H44.2627V12.235H43.0177V9.775ZM63.0265 9.61H64.2715V23.17H63.0265V9.61ZM59.0515 11.065H60.2815C60.2815 14.995 58.5115 18.43 53.9815 20.65L53.3215 19.645C57.2365 17.755 59.0515 14.875 59.0515 11.275V11.065ZM53.9365 11.065H59.5915V12.085H53.9365V11.065Z" fill="#494949"/>
<path d="M16.08 10.3H17.1V11.695C17.1 14.26 15.63 16.375 13.35 17.245L12.705 16.24C14.745 15.505 16.08 13.72 16.08 11.695V10.3ZM16.305 10.3H17.31V11.785C17.31 13.615 18.66 15.31 20.61 15.985L19.98 16.975C17.775 16.165 16.305 14.14 16.305 11.785V10.3ZM22.02 9.61H23.265V17.815H22.02V9.61ZM22.92 13.18H25.275V14.23H22.92V13.18ZM14.46 18.49H23.265V23.17H22.02V19.525H14.46V18.49ZM36.5238 9.61H37.7238V23.17H36.5238V9.61ZM31.5888 14.47H34.1838V15.505H31.5888V14.47ZM33.8088 9.925H34.9788V22.48H33.8088V9.925ZM28.9788 11.71H29.9388V13.435C29.9388 16.405 28.7988 19.21 26.8038 20.47L26.0388 19.54C27.9288 18.4 28.9788 15.925 28.9788 13.435V11.71ZM29.2338 11.71H30.1938V13.435C30.1938 15.79 31.2138 18.145 33.0738 19.225L32.3088 20.14C30.3288 18.94 29.2338 16.27 29.2338 13.435V11.71ZM26.4138 11.185H32.6088V12.22H26.4138V11.185ZM48.8677 9.61H50.1127V23.17H48.8677V9.61ZM49.8127 15.175H52.3327V16.225H49.8127V15.175ZM39.6127 11.77H47.6077V12.79H39.6127V11.77ZM43.6627 13.915C45.5827 13.915 46.9627 15.205 46.9627 17.035C46.9627 18.865 45.5827 20.155 43.6627 20.155C41.7577 20.155 40.3627 18.865 40.3627 17.035C40.3627 15.205 41.7577 13.915 43.6627 13.915ZM43.6627 14.95C42.4327 14.95 41.5477 15.805 41.5477 17.035C41.5477 18.25 42.4327 19.12 43.6627 19.12C44.8927 19.12 45.7777 18.25 45.7777 17.035C45.7777 15.805 44.8927 14.95 43.6627 14.95ZM43.0177 9.775H44.2627V12.235H43.0177V9.775ZM63.0265 9.61H64.2715V23.17H63.0265V9.61ZM59.0515 11.065H60.2815C60.2815 14.995 58.5115 18.43 53.9815 20.65L53.3215 19.645C57.2365 17.755 59.0515 14.875 59.0515 11.275V11.065ZM53.9365 11.065H59.5915V12.085H53.9365V11.065Z" fill="white" fill-opacity="0.5"/>
<path d="M87.4163 9.16667H84.208L83.2913 8.25H78.708L77.7913 9.16667H74.583V11H87.4163M75.4997 22.9167C75.4997 23.4029 75.6928 23.8692 76.0366 24.213C76.3805 24.5568 76.8468 24.75 77.333 24.75H84.6663C85.1526 24.75 85.6189 24.5568 85.9627 24.213C86.3065 23.8692 86.4997 23.4029 86.4997 22.9167V11.9167H75.4997V22.9167Z" fill="#494949"/>
<path d="M87.4163 9.16667H84.208L83.2913 8.25H78.708L77.7913 9.16667H74.583V11H87.4163M75.4997 22.9167C75.4997 23.4029 75.6928 23.8692 76.0366 24.213C76.3805 24.5568 76.8468 24.75 77.333 24.75H84.6663C85.1526 24.75 85.6189 24.5568 85.9627 24.213C86.3065 23.8692 86.4997 23.4029 86.4997 22.9167V11.9167H75.4997V22.9167Z" fill="white" fill-opacity="0.5"/>
</svg>
