<svg width="104" height="33" viewBox="0 0 104 33" fill="none" xmlns="http://www.w3.org/2000/svg">
<rect x="0.5" y="0.5" width="103" height="32" rx="16" stroke="#494949"/>
<rect x="0.5" y="0.5" width="103" height="32" rx="16" stroke="white" stroke-opacity="0.5"/>
<path d="M18.225 10.09H19.32V10.84C19.32 13.435 16.68 15.295 13.86 15.775L13.365 14.77C15.84 14.395 18.225 12.775 18.225 10.84V10.09ZM18.45 10.09H19.53V10.84C19.53 12.73 21.945 14.395 24.39 14.77L23.895 15.775C21.105 15.295 18.45 13.405 18.45 10.84V10.09ZM18.225 18.01H19.455V23.17H18.225V18.01ZM12.75 17.245H25.005V18.28H12.75V17.245ZM33.4488 13.12H36.5088V14.155H33.4488V13.12ZM36.1188 9.61H37.3638V17.695H36.1188V9.61ZM32.9088 18.1C35.6988 18.1 37.4238 19.045 37.4238 20.635C37.4238 22.24 35.6988 23.155 32.9088 23.155C30.1038 23.155 28.3788 22.24 28.3788 20.635C28.3788 19.045 30.1038 18.1 32.9088 18.1ZM32.9088 19.075C30.8688 19.075 29.6238 19.645 29.6238 20.635C29.6238 21.61 30.8688 22.18 32.9088 22.18C34.9488 22.18 36.1938 21.61 36.1938 20.635C36.1938 19.645 34.9488 19.075 32.9088 19.075ZM29.6688 10.975H30.6888V12.07C30.6888 14.575 29.1588 16.72 26.9088 17.56L26.2638 16.57C28.2738 15.835 29.6688 14.02 29.6688 12.07V10.975ZM29.9088 10.975H30.9138V12.07C30.9138 13.825 32.2338 15.505 34.1988 16.195L33.5688 17.185C31.3638 16.39 29.9088 14.35 29.9088 12.07V10.975ZM26.6388 10.6H33.8838V11.62H26.6388V10.6ZM48.8677 9.61H50.1127V23.17H48.8677V9.61ZM49.8127 15.175H52.3327V16.225H49.8127V15.175ZM39.6127 11.77H47.6077V12.79H39.6127V11.77ZM43.6627 13.915C45.5827 13.915 46.9627 15.205 46.9627 17.035C46.9627 18.865 45.5827 20.155 43.6627 20.155C41.7577 20.155 40.3627 18.865 40.3627 17.035C40.3627 15.205 41.7577 13.915 43.6627 13.915ZM43.6627 14.95C42.4327 14.95 41.5477 15.805 41.5477 17.035C41.5477 18.25 42.4327 19.12 43.6627 19.12C44.8927 19.12 45.7777 18.25 45.7777 17.035C45.7777 15.805 44.8927 14.95 43.6627 14.95ZM43.0177 9.775H44.2627V12.235H43.0177V9.775ZM63.0265 9.61H64.2715V23.17H63.0265V9.61ZM59.0515 11.065H60.2815C60.2815 14.995 58.5115 18.43 53.9815 20.65L53.3215 19.645C57.2365 17.755 59.0515 14.875 59.0515 11.275V11.065ZM53.9365 11.065H59.5915V12.085H53.9365V11.065Z" fill="#494949"/>
<path d="M18.225 10.09H19.32V10.84C19.32 13.435 16.68 15.295 13.86 15.775L13.365 14.77C15.84 14.395 18.225 12.775 18.225 10.84V10.09ZM18.45 10.09H19.53V10.84C19.53 12.73 21.945 14.395 24.39 14.77L23.895 15.775C21.105 15.295 18.45 13.405 18.45 10.84V10.09ZM18.225 18.01H19.455V23.17H18.225V18.01ZM12.75 17.245H25.005V18.28H12.75V17.245ZM33.4488 13.12H36.5088V14.155H33.4488V13.12ZM36.1188 9.61H37.3638V17.695H36.1188V9.61ZM32.9088 18.1C35.6988 18.1 37.4238 19.045 37.4238 20.635C37.4238 22.24 35.6988 23.155 32.9088 23.155C30.1038 23.155 28.3788 22.24 28.3788 20.635C28.3788 19.045 30.1038 18.1 32.9088 18.1ZM32.9088 19.075C30.8688 19.075 29.6238 19.645 29.6238 20.635C29.6238 21.61 30.8688 22.18 32.9088 22.18C34.9488 22.18 36.1938 21.61 36.1938 20.635C36.1938 19.645 34.9488 19.075 32.9088 19.075ZM29.6688 10.975H30.6888V12.07C30.6888 14.575 29.1588 16.72 26.9088 17.56L26.2638 16.57C28.2738 15.835 29.6688 14.02 29.6688 12.07V10.975ZM29.9088 10.975H30.9138V12.07C30.9138 13.825 32.2338 15.505 34.1988 16.195L33.5688 17.185C31.3638 16.39 29.9088 14.35 29.9088 12.07V10.975ZM26.6388 10.6H33.8838V11.62H26.6388V10.6ZM48.8677 9.61H50.1127V23.17H48.8677V9.61ZM49.8127 15.175H52.3327V16.225H49.8127V15.175ZM39.6127 11.77H47.6077V12.79H39.6127V11.77ZM43.6627 13.915C45.5827 13.915 46.9627 15.205 46.9627 17.035C46.9627 18.865 45.5827 20.155 43.6627 20.155C41.7577 20.155 40.3627 18.865 40.3627 17.035C40.3627 15.205 41.7577 13.915 43.6627 13.915ZM43.6627 14.95C42.4327 14.95 41.5477 15.805 41.5477 17.035C41.5477 18.25 42.4327 19.12 43.6627 19.12C44.8927 19.12 45.7777 18.25 45.7777 17.035C45.7777 15.805 44.8927 14.95 43.6627 14.95ZM43.0177 9.775H44.2627V12.235H43.0177V9.775ZM63.0265 9.61H64.2715V23.17H63.0265V9.61ZM59.0515 11.065H60.2815C60.2815 14.995 58.5115 18.43 53.9815 20.65L53.3215 19.645C57.2365 17.755 59.0515 14.875 59.0515 11.275V11.065ZM53.9365 11.065H59.5915V12.085H53.9365V11.065Z" fill="white" fill-opacity="0.5"/>
<path d="M88.9842 11.9532C89.3417 11.5957 89.3417 10.9999 88.9842 10.6607L86.8392 8.51568C86.5 8.15818 85.9042 8.15818 85.5467 8.51568L83.86 10.1932L87.2975 13.6307M72.75 21.3123V24.7498H76.1875L86.3258 14.6023L82.8883 11.1648L72.75 21.3123Z" fill="#494949"/>
<path d="M88.9842 11.9532C89.3417 11.5957 89.3417 10.9999 88.9842 10.6607L86.8392 8.51568C86.5 8.15818 85.9042 8.15818 85.5467 8.51568L83.86 10.1932L87.2975 13.6307M72.75 21.3123V24.7498H76.1875L86.3258 14.6023L82.8883 11.1648L72.75 21.3123Z" fill="white" fill-opacity="0.5"/>
</svg>
