<svg width="60" height="60" viewBox="0 0 60 60" fill="none" xmlns="http://www.w3.org/2000/svg">
<g id="mingcute:left-line" clip-path="url(#clip0_2582_2)">
<g id="Group">
<path id="Vector" fill-rule="evenodd" clip-rule="evenodd" d="M20.7325 31.7674C20.2638 31.2986 20.0005 30.6628 20.0005 29.9999C20.0005 29.337 20.2638 28.7012 20.7325 28.2324L34.875 14.0899C35.1056 13.8511 35.3814 13.6606 35.6864 13.5296C35.9915 13.3986 36.3195 13.3296 36.6515 13.3268C36.9834 13.3239 37.3126 13.3871 37.6198 13.5128C37.9271 13.6385 38.2062 13.8242 38.4409 14.0589C38.6757 14.2936 38.8613 14.5728 38.987 14.88C39.1127 15.1872 39.176 15.5164 39.1731 15.8484C39.1702 16.1803 39.1012 16.5084 38.9702 16.8134C38.8392 17.1184 38.6487 17.3943 38.41 17.6249L26.035 29.9999L38.41 42.3749C38.8654 42.8464 39.1173 43.4779 39.1116 44.1334C39.1059 44.7889 38.843 45.4159 38.3795 45.8794C37.916 46.3429 37.2889 46.6059 36.6335 46.6116C35.978 46.6173 35.3465 46.3653 34.875 45.9099L20.7325 31.7674Z" fill="#494949"/>
</g>
</g>
<defs>
<clipPath id="clip0_2582_2">
<rect width="60" height="60" fill="white"/>
</clipPath>
</defs>
</svg>
