<svg width="133" height="32" viewBox="0 0 133 32" fill="none" xmlns="http://www.w3.org/2000/svg">
<rect width="133" height="32" rx="16" fill="#494949" fill-opacity="0.2"/>
<path d="M27.7061 19.3301V20.8682H15.5039V19.3301H20.6455V17.3232H16.9102V12.8408H24.4541V11.376H16.8955V9.88184H26.2998V14.3057H18.7852V15.7998H26.6074V17.3232H22.5059V19.3301H27.7061ZM39.1318 10.248V11.8447C39.1318 13.6758 39.1318 15.4922 38.6484 18.2461L36.7588 18.085C37.2568 15.5215 37.2568 13.6172 37.2715 11.8447V11.7422H29.7275V10.248H39.1318ZM40.626 19.0664V20.6045H28.4678V19.0664H40.626ZM45.0205 9.95508C47.0566 9.95508 48.5215 11.8008 48.5361 14.7012C48.5215 17.6309 47.0566 19.4619 45.0205 19.4619C42.9844 19.4619 41.4902 17.6309 41.5049 14.7012C41.4902 11.8008 42.9844 9.95508 45.0205 9.95508ZM45.0205 11.6396C43.9951 11.6396 43.3066 12.7236 43.3066 14.7012C43.3066 16.6934 43.9951 17.7627 45.0205 17.7627C46.0605 17.7627 46.7344 16.6934 46.749 14.7012C46.7344 12.7236 46.0605 11.6396 45.0205 11.6396ZM51.9492 9.01758V14.042H53.9121V15.5947H51.9492V22.3477H50.0742V9.01758H51.9492ZM66.5537 14.8623V16.4004H61.3828V17.6602H59.5225V16.4004H54.3955V14.8623H66.5537ZM61.3975 18.4365C61.3975 19.5352 62.7451 20.6338 65.6895 20.8828L65.1182 22.2891C62.8403 22.084 61.2363 21.3369 60.4307 20.2529C59.6177 21.3149 58.043 22.084 55.8018 22.2891L55.1719 20.8828C58.0723 20.6338 59.4639 19.4766 59.4785 18.4365V18.1729H61.3975V18.4365ZM60.4746 9.17871C63.4629 9.17871 65.3086 10.0869 65.3232 11.6836C65.3086 13.2803 63.4629 14.2031 60.4746 14.2031C57.501 14.2031 55.6113 13.2803 55.6113 11.6836C55.6113 10.0869 57.501 9.17871 60.4746 9.17871ZM60.4746 10.5557C58.585 10.5557 57.5449 10.9512 57.5596 11.6836C57.5449 12.4014 58.585 12.7822 60.4746 12.7822C62.335 12.7822 63.3896 12.4014 63.3896 11.6836C63.3896 10.9512 62.335 10.5557 60.4746 10.5557ZM77.877 9.01758V14.2324H79.8398V15.7705H77.877V22.3477H76.0312V9.01758H77.877ZM75.123 11.0098V12.5039H67.2861V11.0098H70.3037V9.22266H72.1787V11.0098H75.123ZM71.2412 13.251C73.1895 13.251 74.6396 14.5693 74.6396 16.4297C74.6396 18.29 73.1895 19.6084 71.2412 19.6084C69.2783 19.6084 67.8281 18.29 67.8281 16.4297C67.8281 14.5693 69.2783 13.251 71.2412 13.251ZM71.2412 14.7598C70.3037 14.7744 69.6152 15.4043 69.6152 16.4297C69.6152 17.4697 70.3037 18.085 71.2412 18.0703C72.1787 18.085 72.8525 17.4697 72.8525 16.4297C72.8525 15.4043 72.1787 14.7744 71.2412 14.7598ZM91.5293 9.01758V22.3477H89.6396V9.01758H91.5293ZM87.5303 10.4092C87.5303 14.4521 86.1094 17.8066 81.3486 20.0625L80.3672 18.5684C83.8096 16.9424 85.3257 14.833 85.626 11.874H81.085V10.4092H87.5303Z" fill="white"/>
<path d="M104.667 25C104.208 25 103.816 24.8043 103.49 24.413C103.164 24.0217 103.001 23.5507 103 23V9C103 8.45 103.163 7.97933 103.49 7.588C103.817 7.19667 104.209 7.00067 104.667 7H110.5V9H104.667V23H110.5V25H104.667ZM113.833 21L112.688 19.55L114.812 17H108V15H114.812L112.688 12.45L113.833 11L118 16L113.833 21Z" fill="white"/>
</svg>
