<svg width="133" height="32" viewBox="0 0 133 32" fill="none" xmlns="http://www.w3.org/2000/svg">
<rect width="133" height="32" rx="16" fill="#494949"/>
<rect width="133" height="32" rx="16" fill="white" fill-opacity="0.3"/>
<path d="M27.71 9.01758V22.3477H25.8496V9.01758H27.71ZM16.5625 18.583C17.5806 18.5757 18.7451 18.5757 19.9609 18.5391V17.4111C18.4961 17.1548 17.5439 16.2466 17.5586 14.9941C17.5439 13.5 18.9062 12.4893 20.8691 12.4893C22.8467 12.4893 24.2236 13.5 24.2236 14.9941C24.2236 16.2393 23.2715 17.1475 21.8066 17.4111V18.4805C22.9199 18.4292 24.0479 18.3413 25.1172 18.2021L25.249 19.5791C22.334 20.0771 19.1846 20.1064 16.8115 20.1064L16.5625 18.583ZM24.9268 10.4971V11.9619H16.8262V10.4971H19.9609V9.07617H21.8213V10.4971H24.9268ZM20.8691 13.9102C19.9609 13.9102 19.3164 14.3057 19.3311 14.9941C19.3164 15.6973 19.9609 16.0781 20.8691 16.0781C21.8066 16.0781 22.4365 15.6973 22.4365 14.9941C22.4365 14.3057 21.8066 13.9102 20.8691 13.9102ZM40.7617 9.03223V19.0957H38.8867V18.041H36.3379V16.7666H38.8867V9.03223H40.7617ZM41.0547 20.6191V22.1133H31.123V18.1289H32.9834V16.3564C31.7896 16.4077 30.6543 16.415 29.6436 16.415L29.4238 14.9355C31.8701 14.9209 35.166 14.8916 37.9785 14.54L38.0811 15.873C37.0264 16.0488 35.9351 16.1733 34.8584 16.2539V18.7881H32.9834V20.6191H41.0547ZM33.7598 9.48633C35.6934 9.47168 37.085 10.4531 37.085 11.874C37.085 13.2949 35.6934 14.2178 33.7598 14.2178C31.7822 14.2178 30.4053 13.2949 30.4053 11.874C30.4053 10.4531 31.7676 9.47168 33.7598 9.48633ZM33.7598 10.8486C32.8076 10.8486 32.1631 11.2148 32.1777 11.874C32.1631 12.5186 32.8076 12.8701 33.7598 12.8701C34.6533 12.8701 35.2979 12.5186 35.3125 11.874C35.2979 11.2148 34.6533 10.8486 33.7598 10.8486ZM49.2285 9.54492V11.0244H44.8193V11.8594H48.9502V13.2656H44.8193V14.1885C47.0532 14.1812 48.4155 14.1226 50.0342 13.8955L50.1953 15.3311C48.3789 15.6094 46.7969 15.6533 44.043 15.6533H42.9297V9.54492H49.2285ZM53.0078 9.01758V11.6396H54.8096V13.1484H53.0078V15.873H51.1328V9.01758H53.0078ZM53.0078 16.415V19.9746H46.0205V20.8242H53.3887V22.2598H44.1895V18.627H51.1475V17.8652H44.1602V16.415H53.0078ZM63.3789 15.1553V16.6201H60.7422V18.29C61.8335 18.2314 62.9395 18.1289 63.9795 17.9824L64.126 19.3301C61.167 19.916 58.0029 19.916 55.6738 19.9453L55.4541 18.4219C56.4575 18.4219 57.6367 18.4146 58.8818 18.3779V16.6201H56.3916V10.1016H63.335V11.5957H58.2812V12.6504H63.0713V14.0713H58.2812V15.1553H63.3789ZM66.6016 9.01758V22.377H64.7412V9.01758H66.6016ZM78.877 9.01758V14.2324H80.8398V15.7705H78.877V22.3477H77.0312V9.01758H78.877ZM76.123 11.0098V12.5039H68.2861V11.0098H71.3037V9.22266H73.1787V11.0098H76.123ZM72.2412 13.251C74.1895 13.251 75.6396 14.5693 75.6396 16.4297C75.6396 18.29 74.1895 19.6084 72.2412 19.6084C70.2783 19.6084 68.8281 18.29 68.8281 16.4297C68.8281 14.5693 70.2783 13.251 72.2412 13.251ZM72.2412 14.7598C71.3037 14.7744 70.6152 15.4043 70.6152 16.4297C70.6152 17.4697 71.3037 18.085 72.2412 18.0703C73.1787 18.085 73.8525 17.4697 73.8525 16.4297C73.8525 15.4043 73.1787 14.7744 72.2412 14.7598ZM92.5293 9.01758V22.3477H90.6396V9.01758H92.5293ZM88.5303 10.4092C88.5303 14.4521 87.1094 17.8066 82.3486 20.0625L81.3672 18.5684C84.8096 16.9424 86.3257 14.833 86.626 11.874H82.085V10.4092H88.5303Z" fill="white"/>
<path d="M117 8.44444H113.75L112.821 7.5H108.179L107.25 8.44444H104V10.3333H117M104.929 22.6111C104.929 23.1121 105.124 23.5925 105.473 23.9468C105.821 24.301 106.293 24.5 106.786 24.5H114.214C114.707 24.5 115.179 24.301 115.527 23.9468C115.876 23.5925 116.071 23.1121 116.071 22.6111V11.2778H104.929V22.6111Z" fill="white"/>
</svg>
