<svg width="120" height="120" viewBox="0 0 120 120" fill="none" xmlns="http://www.w3.org/2000/svg">
<g clip-path="url(#clip0_2798_2864)">
<rect width="120" height="120" rx="60" fill="#F8F8F8"/>
<g clip-path="url(#clip1_2798_2864)">
<path d="M86.0957 86.0623H54.8457V43.769L81.8664 58.5717L86.0957 86.0623Z" fill="#494949"/>
<path d="M60.6188 78.598C71.824 78.598 80.9076 69.5144 80.9076 58.3093C80.9076 47.1041 71.824 38.0205 60.6188 38.0205C49.4137 38.0205 40.3301 47.1041 40.3301 58.3093C40.3301 69.5144 49.4137 78.598 60.6188 78.598Z" fill="#FFB6B6"/>
<path d="M48.9709 81.5981L48.0543 72.3327L66.3581 68.9102L77.1664 95.2259L58.3694 116.842L44.9766 90.5267L48.9709 81.5981Z" fill="#FFB6B6"/>
<path d="M104.387 102.989C104.159 103.226 103.927 103.461 103.694 103.694C102.956 104.432 102.205 105.148 101.436 105.844C89.923 116.286 75.1509 122 59.5001 122C45.0711 122 31.3892 117.143 20.3201 108.203C20.3131 108.198 20.3084 108.194 20.3013 108.186C19.9653 107.916 19.634 107.641 19.3027 107.362C19.3615 107.193 19.4249 107.026 19.4884 106.861C23.048 97.5873 30.0781 93.0502 34.345 91.0648C36.4597 90.0803 37.8953 89.7208 37.8953 89.7208L42.9047 80.6982L46.4315 87.2772L49.0302 92.1268L59.6928 112.021L68.8916 89.1169L71.7416 82.0164L72.4724 80.1978L75.9475 82.9022L79.2369 85.4609L85.8605 86.9224L91.2341 88.1089L98.5321 89.7208C101.483 92.1244 103.278 96.6968 104.282 102.378C104.319 102.58 104.354 102.785 104.387 102.989Z" fill="#FDDE55"/>
<path d="M49.9464 35.2524C52.4178 31.1011 56.9567 28.2528 61.7697 27.833C66.5827 27.4132 71.5462 29.4327 74.699 33.0935C76.5777 35.2749 77.8096 37.9465 79.6408 40.1679C83.5817 44.9483 90.3016 47.7435 92.0232 53.6949C92.7744 56.2919 92.4001 59.0645 92.0199 61.7412C91.6941 64.0354 91.3683 66.3296 91.0425 68.6237C90.789 70.4091 90.5459 72.2913 91.2153 73.9658C92.0007 75.9303 93.8804 77.2169 95.0956 78.9487C97.1635 81.8955 97.0123 86.2099 94.7433 89.0047C93.7593 90.2168 92.4547 91.1309 91.423 92.3026C90.3913 93.4744 89.6261 95.0765 90.0582 96.5767C90.8859 99.4506 95.3929 100.14 95.8872 103.089C96.14 104.597 95.0984 106.103 93.7336 106.793C92.3689 107.483 90.7624 107.503 89.2445 107.318C83.4753 106.617 78.1338 103.012 75.3249 97.9244C72.516 92.8367 72.3115 86.3958 74.7919 81.1401C76.8291 76.8235 80.6155 73.0091 80.5743 68.2361C80.5518 65.6358 79.3591 63.2072 78.1928 60.883C75.8058 56.126 73.4188 51.369 71.0317 46.612C69.7531 44.0639 68.2692 41.3179 65.6367 40.2232C63.6022 39.3772 61.2938 39.7054 59.1178 40.0514C56.9418 40.3974 54.6367 40.7342 52.5962 39.9029C50.5557 39.0716 49.0138 36.6018 49.9861 34.6245" fill="#494949"/>
<path d="M53.5016 35.4695C49.5818 34.1792 45.1846 36.2505 42.5309 39.4108C39.8771 42.5711 38.5899 46.6256 37.3636 50.5659C36.6611 52.8229 35.9587 55.0799 35.2563 57.3369C34.5955 59.4601 33.9348 61.5833 33.274 63.7064C32.4968 66.2038 31.7132 68.8569 32.351 71.3934C32.8122 73.2272 33.9987 74.8923 34.0243 76.783C34.051 78.758 32.8141 80.4919 31.7302 82.1431C30.6463 83.7944 29.6288 85.7562 30.1453 87.6627C30.9307 90.5625 34.9624 92.1565 34.7414 95.1527C34.6677 96.1526 34.0894 97.0775 34.0999 98.0801C34.1133 99.3557 35.112 100.458 36.2821 100.966C37.4522 101.474 38.7685 101.502 40.044 101.48C43.9564 101.411 47.8618 100.946 51.6811 100.095C53.1506 99.7677 54.6449 99.3661 55.8681 98.4884C57.0913 97.6107 58.0038 96.1565 57.8446 94.6594C57.5965 92.3266 55.0883 91.0031 53.8225 89.0278C52.5792 87.0877 52.608 84.6294 52.0719 82.3883C51.3351 79.3084 49.5155 76.6194 48.1495 73.7623C43.0139 63.0207 44.8117 49.3292 52.5461 40.2775C53.23 39.4772 53.9771 38.6721 54.2624 37.6588C54.5477 36.6455 54.18 35.3545 53.1887 35" fill="#494949"/>
<path d="M103.694 15.3059C91.8896 3.50141 76.1941 -3 59.5 -3C42.8059 -3 27.1104 3.50141 15.3059 15.3059C3.50141 27.1104 -3 42.8059 -3 59.5C-3 74.7373 2.41588 89.1428 12.3407 100.517C13.2876 101.605 14.2768 102.665 15.3059 103.694C15.5479 103.936 15.7923 104.178 16.039 104.413C16.6969 105.05 17.3665 105.672 18.0479 106.276C18.4615 106.645 18.8797 107.007 19.3026 107.362C19.6339 107.641 19.9652 107.916 20.3012 108.187C20.3083 108.194 20.313 108.198 20.32 108.203C31.3891 117.143 45.071 122 59.5 122C75.1508 122 89.9229 116.286 101.436 105.844C102.204 105.148 102.956 104.432 103.694 103.694C103.927 103.461 104.159 103.226 104.387 102.989C105.022 102.336 105.637 101.671 106.239 100.997C116.429 89.5493 122 74.9535 122 59.5C122 42.8059 115.499 27.1104 103.694 15.3059ZM106.086 100.412C105.499 101.079 104.897 101.737 104.281 102.378C103.323 103.377 102.334 104.345 101.312 105.278C100.924 105.635 100.531 105.983 100.134 106.328C96.1236 109.817 91.6593 112.797 86.8449 115.17C85.1555 116.004 83.4239 116.763 81.6523 117.442C74.7702 120.083 67.3008 121.53 59.5 121.53C51.9718 121.53 44.7538 120.181 38.0738 117.714C35.3318 116.704 32.6814 115.503 30.1368 114.129C29.7632 113.927 29.3919 113.722 29.023 113.513C27.0822 112.414 25.2049 111.213 23.4027 109.916C22.0564 108.95 20.75 107.933 19.4883 106.861C19.0465 106.488 18.6095 106.109 18.1795 105.722C17.4793 105.099 16.7932 104.458 16.1236 103.8C14.8548 102.557 13.6424 101.262 12.484 99.9159C3.13018 89.0512 -2.53008 74.9253 -2.53008 59.5C-2.53008 25.2965 25.2965 -2.53008 59.5 -2.53008C93.7035 -2.53008 121.53 25.2965 121.53 59.5C121.53 75.1626 115.696 89.4859 106.086 100.412Z" fill="#F8F8F8"/>
</g>
</g>
<rect x="0.5" y="0.5" width="119" height="119" rx="59.5" stroke="#494949" stroke-opacity="0.2"/>
<defs>
<clipPath id="clip0_2798_2864">
<rect width="120" height="120" rx="60" fill="white"/>
</clipPath>
<clipPath id="clip1_2798_2864">
<rect width="125" height="125" fill="white" transform="translate(-3 -3)"/>
</clipPath>
</defs>
</svg>
