<svg width="60" height="60" viewBox="0 0 60 60" fill="none" xmlns="http://www.w3.org/2000/svg">
<g id="mingcute:right-line" clip-path="url(#clip0_2582_6)">
<g id="Group">
<path id="Vector" fill-rule="evenodd" clip-rule="evenodd" d="M39.2674 28.2325C39.7361 28.7013 39.9993 29.3371 39.9993 30C39.9993 30.6629 39.7361 31.2986 39.2674 31.7675L25.1249 45.91C24.8943 46.1487 24.6184 46.3392 24.3134 46.4702C24.0084 46.6012 23.6803 46.6702 23.3484 46.6731C23.0164 46.676 22.6872 46.6127 22.38 46.487C22.0728 46.3613 21.7936 46.1757 21.5589 45.9409C21.3242 45.7062 21.1385 45.4271 21.0128 45.1198C20.8871 44.8126 20.8239 44.4834 20.8268 44.1515C20.8296 43.8195 20.8986 43.4915 21.0296 43.1865C21.1606 42.8814 21.3511 42.6056 21.5899 42.375L33.9649 30L21.5899 17.625C21.1345 17.1535 20.8825 16.522 20.8882 15.8665C20.8939 15.211 21.1568 14.5839 21.6203 14.1204C22.0839 13.6569 22.7109 13.394 23.3664 13.3883C24.0219 13.3826 24.6534 13.6346 25.1249 14.09L39.2674 28.2325Z" fill="#494949"/>
</g>
</g>
<defs>
<clipPath id="clip0_2582_6">
<rect width="60" height="60" fill="white"/>
</clipPath>
</defs>
</svg>
