<svg width="45" height="45" viewBox="0 0 45 45" fill="none" xmlns="http://www.w3.org/2000/svg">
<rect width="45" height="45" fill="#E6E6E6"/>
<path d="M-805 -5270C-805 -5271.1 -804.105 -5272 -803 -5272H2715C2716.1 -5272 2717 -5271.1 2717 -5270V4164C2717 4165.1 2716.1 4166 2715 4166H-803C-804.105 4166 -805 4165.1 -805 4164V-5270Z" fill="#494949"/>
<path d="M-803 -5271H2715V-5273H-803V-5271ZM2716 -5270V4164H2718V-5270H2716ZM2715 4165H-803V4167H2715V4165ZM-804 4164V-5270H-806V4164H-804ZM-803 4165C-803.552 4165 -804 4164.55 -804 4164H-806C-806 4165.66 -804.657 4167 -803 4167V4165ZM2716 4164C2716 4164.55 2715.55 4165 2715 4165V4167C2716.66 4167 2718 4165.66 2718 4164H2716ZM2715 -5271C2715.55 -5271 2716 -5270.55 2716 -5270H2718C2718 -5271.66 2716.66 -5273 2715 -5273V-5271ZM-803 -5273C-804.657 -5273 -806 -5271.66 -806 -5270H-804C-804 -5270.55 -803.552 -5271 -803 -5271V-5273Z" fill="black" fill-opacity="0.1"/>
<g clip-path="url(#clip0_0_1)">
<rect width="600" height="1229.94" transform="translate(-514 -23)" fill="#EDEDED"/>
<rect width="600" height="91" transform="translate(-514 -23)" fill="#F8F8F8"/>
<path d="M35.6238 35.9451L28 28.3366V28H28.3366L35.9451 35.6238L35.6238 35.9451ZM25.7308 24.601L25.2027 25.2136L24.603 25.7292C22.7703 27.3046 20.3963 28.25 17.8125 28.25C15.7482 28.25 13.7302 27.6379 12.0137 26.491C10.2973 25.3441 8.9595 23.714 8.16951 21.8068C7.37952 19.8996 7.17283 17.8009 7.57556 15.7762C7.97829 13.7516 8.97237 11.8918 10.4321 10.4321C11.8918 8.97237 13.7516 7.97829 15.7762 7.57556C17.8009 7.17283 19.8996 7.37952 21.8068 8.16951C23.714 8.9595 25.3441 10.2973 26.491 12.0137C27.6379 13.7302 28.25 15.7482 28.25 17.8125V17.8137C28.2518 20.3051 27.3577 22.7141 25.7308 24.601ZM7.62501 17.8125C7.62501 23.4478 12.1773 28 17.8125 28C23.4478 28 28 23.4478 28 17.8125C28 12.1773 23.4478 7.62501 17.8125 7.62501C12.1773 7.62501 7.62501 12.1773 7.62501 17.8125Z" fill="#494949" stroke="#494949" stroke-width="3.5"/>
</g>
<defs>
<clipPath id="clip0_0_1">
<rect width="600" height="1229.94" fill="white" transform="translate(-514 -23)"/>
</clipPath>
</defs>
</svg>
