<svg width="30" height="30" viewBox="0 0 30 30" fill="none" xmlns="http://www.w3.org/2000/svg">
<rect width="30" height="30" rx="15" fill="#FDDE55"/>
<mask id="path-2-inside-1_2798_2772" fill="white">
<path d="M18.2204 16.934H17.5429L17.3027 16.7024C18.1723 15.6938 18.6502 14.4063 18.6492 13.0746C18.6492 11.9721 18.3223 10.8943 17.7097 9.97753C17.0972 9.06079 16.2266 8.34627 15.2079 7.92434C14.1893 7.50242 13.0684 7.39202 11.9871 7.60712C10.9057 7.82221 9.91239 8.35315 9.13277 9.13277C8.35315 9.91239 7.82221 10.9057 7.60712 11.9871C7.39202 13.0684 7.50242 14.1893 7.92434 15.2079C8.34627 16.2266 9.06079 17.0972 9.97753 17.7097C10.8943 18.3223 11.9721 18.6492 13.0746 18.6492C14.4554 18.6492 15.7247 18.1432 16.7024 17.3027L16.934 17.5429V18.2204L21.2221 22.5L22.5 21.2221L18.2204 16.934ZM13.0746 16.934C10.9391 16.934 9.21527 15.2101 9.21527 13.0746C9.21527 10.9391 10.9391 9.21527 13.0746 9.21527C15.2101 9.21527 16.934 10.9391 16.934 13.0746C16.934 15.2101 15.2101 16.934 13.0746 16.934Z"/>
</mask>
<path d="M18.2204 16.934H17.5429L17.3027 16.7024C18.1723 15.6938 18.6502 14.4063 18.6492 13.0746C18.6492 11.9721 18.3223 10.8943 17.7097 9.97753C17.0972 9.06079 16.2266 8.34627 15.2079 7.92434C14.1893 7.50242 13.0684 7.39202 11.9871 7.60712C10.9057 7.82221 9.91239 8.35315 9.13277 9.13277C8.35315 9.91239 7.82221 10.9057 7.60712 11.9871C7.39202 13.0684 7.50242 14.1893 7.92434 15.2079C8.34627 16.2266 9.06079 17.0972 9.97753 17.7097C10.8943 18.3223 11.9721 18.6492 13.0746 18.6492C14.4554 18.6492 15.7247 18.1432 16.7024 17.3027L16.934 17.5429V18.2204L21.2221 22.5L22.5 21.2221L18.2204 16.934ZM13.0746 16.934C10.9391 16.934 9.21527 15.2101 9.21527 13.0746C9.21527 10.9391 10.9391 9.21527 13.0746 9.21527C15.2101 9.21527 16.934 10.9391 16.934 13.0746C16.934 15.2101 15.2101 16.934 13.0746 16.934Z" fill="white"/>
<path d="M18.2204 16.934L20.6978 14.4616L19.6722 13.434H18.2204V16.934ZM17.5429 16.934L15.1134 19.4534L16.1303 20.434H17.5429V16.934ZM17.3027 16.7024L14.6519 14.417L12.4904 16.9241L14.8733 19.2219L17.3027 16.7024ZM18.6492 13.0746H15.1492L15.1492 13.0771L18.6492 13.0746ZM13.0746 18.6492V15.1492V18.6492ZM16.7024 17.3027L19.2219 14.8733L16.9274 12.4938L14.4208 14.6486L16.7024 17.3027ZM16.934 17.5429H20.434V16.1303L19.4534 15.1134L16.934 17.5429ZM16.934 18.2204H13.434V19.6722L14.4616 20.6978L16.934 18.2204ZM21.2221 22.5L18.7497 24.9774L21.2246 27.4473L23.697 24.9749L21.2221 22.5ZM22.5 21.2221L24.9749 23.697L27.4473 21.2246L24.9774 18.7497L22.5 21.2221ZM18.2204 13.434H17.5429V20.434H18.2204V13.434ZM19.9724 14.4145L19.7322 14.1829L14.8733 19.2219L15.1134 19.4534L19.9724 14.4145ZM19.9536 18.9878C21.3715 17.3432 22.1508 15.2436 22.1492 13.0721L15.1492 13.0771C15.1496 13.5689 14.9731 14.0445 14.6519 14.417L19.9536 18.9878ZM22.1492 13.0746C22.1492 11.2798 21.617 9.52534 20.6199 8.03303L14.7996 11.922C15.0276 12.2632 15.1492 12.6643 15.1492 13.0746H22.1492ZM20.6199 8.03303C19.6227 6.54072 18.2055 5.3776 16.5473 4.69077L13.8685 11.1579C14.2476 11.3149 14.5716 11.5809 14.7996 11.922L20.6199 8.03303ZM16.5473 4.69077C14.8892 4.00393 13.0645 3.82422 11.3042 4.17437L12.6699 11.0399C13.0723 10.9598 13.4894 11.0009 13.8685 11.1579L16.5473 4.69077ZM11.3042 4.17437C9.54394 4.52451 7.927 5.38879 6.65789 6.65789L11.6076 11.6076C11.8978 11.3175 12.2674 11.1199 12.6699 11.0399L11.3042 4.17437ZM6.65789 6.65789C5.38879 7.927 4.52451 9.54394 4.17437 11.3042L11.0399 12.6699C11.1199 12.2674 11.3175 11.8978 11.6076 11.6076L6.65789 6.65789ZM4.17437 11.3042C3.82422 13.0645 4.00393 14.8892 4.69077 16.5473L11.1579 13.8685C11.0009 13.4894 10.9598 13.0723 11.0399 12.6699L4.17437 11.3042ZM4.69077 16.5473C5.3776 18.2055 6.54072 19.6227 8.03303 20.6199L11.922 14.7996C11.5809 14.5716 11.3149 14.2476 11.1579 13.8685L4.69077 16.5473ZM8.03303 20.6199C9.52534 21.617 11.2798 22.1492 13.0746 22.1492V15.1492C12.6643 15.1492 12.2632 15.0276 11.922 14.7996L8.03303 20.6199ZM13.0746 22.1492C15.3252 22.1492 17.3966 21.3215 18.984 19.9569L14.4208 14.6486C14.0528 14.965 13.5856 15.1492 13.0746 15.1492V22.1492ZM14.1829 19.7322L14.4145 19.9724L19.4534 15.1134L19.2219 14.8733L14.1829 19.7322ZM13.434 17.5429V18.2204H20.434V17.5429H13.434ZM14.4616 20.6978L18.7497 24.9774L23.6945 20.0226L19.4064 15.7431L14.4616 20.6978ZM23.697 24.9749L24.9749 23.697L20.0251 18.7473L18.7473 20.0251L23.697 24.9749ZM24.9774 18.7497L20.6978 14.4616L15.7431 19.4064L20.0226 23.6945L24.9774 18.7497ZM13.0746 13.434C12.8721 13.434 12.7153 13.2771 12.7153 13.0746H5.71527C5.71527 17.1431 9.00611 20.434 13.0746 20.434V13.434ZM12.7153 13.0746C12.7153 12.8721 12.8721 12.7153 13.0746 12.7153V5.71527C9.00611 5.71527 5.71527 9.00611 5.71527 13.0746H12.7153ZM13.0746 12.7153C13.2771 12.7153 13.434 12.8721 13.434 13.0746H20.434C20.434 9.00611 17.1431 5.71527 13.0746 5.71527V12.7153ZM13.434 13.0746C13.434 13.2771 13.2771 13.434 13.0746 13.434V20.434C17.1431 20.434 20.434 17.1431 20.434 13.0746H13.434Z" fill="white" mask="url(#path-2-inside-1_2798_2772)"/>
</svg>
