<svg width="25" height="25" viewBox="0 0 25 25" fill="none" xmlns="http://www.w3.org/2000/svg">
<g id="ph:x-bold">
<path id="Vector" d="M21.0665 19.4093C21.2866 19.6294 21.4103 19.928 21.4103 20.2393C21.4103 20.5507 21.2866 20.8493 21.0665 21.0694C20.8463 21.2896 20.5477 21.4132 20.2364 21.4132C19.9251 21.4132 19.6265 21.2896 19.4063 21.0694L13.2061 14.8673L7.00399 21.0675C6.78384 21.2876 6.48525 21.4113 6.17391 21.4113C5.86257 21.4113 5.56398 21.2876 5.34383 21.0675C5.12368 20.8473 5 20.5487 5 20.2374C5 19.926 5.12368 19.6275 5.34383 19.4073L11.546 13.2071L5.34578 7.00496C5.12563 6.78481 5.00195 6.48622 5.00195 6.17488C5.00195 5.86354 5.12563 5.56496 5.34578 5.34481C5.56593 5.12466 5.86452 5.00098 6.17586 5.00098C6.4872 5.00098 6.78579 5.12466 7.00594 5.34481L13.2061 11.547L19.4083 5.34383C19.6284 5.12368 19.927 5 20.2384 5C20.5497 5 20.8483 5.12368 21.0684 5.34383C21.2886 5.56398 21.4123 5.86257 21.4123 6.17391C21.4123 6.48525 21.2886 6.78384 21.0684 7.00399L14.8663 13.2071L21.0665 19.4093Z" fill="#494949"/>
</g>
</svg>
